<svg height="451" viewBox="0 0 409 451" width="409" xmlns="http://www.w3.org/2000/svg" xmlns:xlink="http://www.w3.org/1999/xlink"><linearGradient id="a" x1="107.917676%" x2="72.803953%" y1="81.906428%" y2="81.906428%"><stop offset="0" stop-opacity="0"/><stop offset="1"/></linearGradient><linearGradient id="b" x1=".000181%" x2="100%" y1="49.993436%" y2="49.993436%"><stop offset="0" stop-color="#f2f1ed"/><stop offset="1" stop-color="#d1ccbd"/></linearGradient><linearGradient id="c" x1="49.993417%" x2="49.993417%" y1="100.005848%" y2="0%"><stop offset="0" stop-color="#f2f1ed"/><stop offset=".56" stop-color="#d1ccbd"/></linearGradient><linearGradient id="d" x1="49.996564%" x2="49.996564%" y1="100%" y2="0%"><stop offset="0" stop-color="#f2f1ed"/><stop offset=".47" stop-color="#d1ccbd"/></linearGradient><linearGradient id="e"><stop offset=".01" stop-color="#f2f1ed"/><stop offset=".96" stop-color="#d1ccbd"/></linearGradient><radialGradient id="f" cx="50.842222%" cy="50.457364%" gradientTransform="matrix(1 0 0 .465546 0 .269672)" r="126.396111%" xlink:href="#e"/><radialGradient id="g" cx="50.001076%" cy="50%" gradientTransform="matrix(1 0 0 .531661 0 .234169)" r="75.361847%" xlink:href="#e"/><radialGradient id="h" cx="49.976507%" cy="50.005797%" gradientTransform="matrix(.736118 0 0 1 .131879 0)" r="59.631814%" xlink:href="#e"/><linearGradient id="i" x1="50.034273%" x2="50.034273%" y1="99.977891%" y2="0%"><stop offset="0" stop-color="#d1ccbd"/><stop offset="1" stop-color="#f2f1ed"/></linearGradient><linearGradient id="j"><stop offset="0" stop-color="#4a4f54"/><stop offset="1" stop-color="#4a4f54" stop-opacity=".5"/></linearGradient><linearGradient id="k" x1="49.97062%" x2="49.97062%" xlink:href="#j" y1="100.032312%" y2="-.004151%"/><linearGradient id="l" x1="49.940294%" x2="49.940294%" xlink:href="#j" y1="99.935398%" y2="-.068088%"/><linearGradient id="m" x1="45.792229%" x2="50.792229%" xlink:href="#j" y1="50.5%" y2="50.5%"/><linearGradient id="n"><stop offset="0" stop-color="#4a4f54" stop-opacity=".5"/><stop offset="1" stop-color="#4a4f54"/></linearGradient><linearGradient id="o" x1="-.116597%" x2="99.868544%" xlink:href="#n" y1="49.999051%" y2="49.999051%"/><linearGradient id="p" x1="100.011415%" x2="0%" xlink:href="#n" y1="49.999051%" y2="49.999051%"/><mask id="q" fill="#fff"><path d="m0 0h406.368112v55.0998817h-406.368112z" fill="#fff" fill-rule="evenodd"/></mask><g fill="none" fill-rule="evenodd"><path d="m353.243566 24.1601089c-20.46938 0-38.231885 2.1212231-47.102535 5.2296898-3.572615 1.2518592-7.448148 1.2807152-11.070441.1841872-44.278129-13.3940962-267.2257687-4.8275476-276.765262-5.6164829-13.07272872-1.0817931-17.99151103-4.0558031 7.8873786-10.5441057 25.8788897-6.48891647 58.8624179-13.24797427 58.8624179-13.24797427-9.3728885-1.75714629-66.3323755 11.06351367-66.3323755 11.06351367s-17.07488121 2.1844606-18.67489403 10.8363493c-1.60122449 8.6512748 37.51215213 11.2955896 37.51215213 11.2955896 146.9721729-2.9144561 76.0560429 21.7390061 76.0560429 21.7390061h38.167667s23.02419-20.8475399 58.506792-16.5215955c35.483207 4.3259443-15.373694 16.5215955-15.373694 16.5215955h38.167667c14.630938-4.7317702 60.5527-8.8127455 65.929494-12.3270381 4.092422-2.6731708 9.049978-3.5848977 13.812455-2.5626585 9.743054 2.0905252 24.23465 3.4166734 40.417135 3.4166734 29.340031 0 53.124546-4.3578702 53.124546-9.7330678 0-5.3758116-23.784515-9.7336818-53.124546-9.7336818" fill="url(#a)" mask="url(#q)" opacity=".1" transform="translate(1.915888 394.468085)"/><path d="m180.467685 333.688525v.553278.411886l-.055379.768442-.13537 1.444672c-.098452.940574-.215363 1.844263-.34458 2.760246-.258436 1.813525-.57225 3.584017-.935289 5.342213-2.16049 10.420335-5.981 20.42669-11.315765 29.637295-3.551332 6.110343-7.785162 11.798365-12.620247 16.954918-4.778223 5.109727-10.108697 9.674491-15.893758 13.610656-11.494209 7.819672-24.342125 12.977459-37.331565 16.088115-1.624449.411885-3.2612044.731557-4.8856535 1.094262l-2.4612866.467213c-.8183778.159836-1.6306024.307377-2.4182141.442623-3.1791618.549181-6.368579 1.057377-9.5682516 1.52459-6.3993451.934427-12.8171499 1.709017-19.2657207 2.280738s-12.9217546.940574-19.4257043 1.026639c-6.531398.114091-13.0637169-.167161-19.5610752-.842213-3.3107658-.350313-6.598123-.894279-9.8451463-1.629098-1.6807657-.389124-3.3385458-.871427-4.96564566-1.444672-1.77691789-.604028-3.47019418-1.430263-5.03948428-2.459017-.96289562-.643786-1.81140606-1.443726-2.51051231-2.366803-.42984713-.58958-.76415829-1.243063-.99066785-1.936475-.25010746-.770829-.33604203-1.585408-.25228187-2.391394.07556774-.742146.28398598-1.46469.61532164-2.133196.27312657-.560078.61410895-1.0845 1.01528072-1.561476.66753831-.79174 1.43248731-1.496083 2.27669009-2.096311 1.46326713-1.0197 3.03089045-1.881098 4.6764445-2.569672 1.54066112-.66097 3.11379112-1.243681 4.71336382-1.745902 1.5690702-.504098 3.1442936-.946721 4.7256702-1.340164 1.5813767-.393443 3.0766082-.780738 4.5841463-1.192623 3.0355868-.819672 6.0465607-1.723361 9.0329217-2.711065 5.9841343-1.938955 11.8254382-4.293042 17.481288-7.045082 5.6768197-2.709273 10.9949206-6.112362 15.8322259-10.131148 2.4132512-2.016447 4.5613806-4.329907 6.3931919-6.885246 1.7659731-2.569672 3.1566001-5.532787 3.2858176-8.729508.0799918 3.202869-1.1444983 6.319672-2.7812538 9.055328-1.6899333 2.738414-3.7248277 5.248694-6.054765 7.469262-4.6769975 4.421021-9.8880287 8.241535-15.5122587 11.372951-5.5999263 3.171388-11.4144722 5.948621-17.4012961 8.311475-2.9781568 1.198771-5.9932329 2.305328-9.0329218 3.344263-1.5136912.522541-3.0766082 1.020491-4.5533802 1.512295-1.4767719.491803-2.9227778 1.020491-4.3072515 1.59836-1.3986812.555735-2.7666449 1.185731-4.0980421 1.887295-1.2569884.637579-2.44295204 1.406198-3.53809951 2.293033-.4324673.357458-.81528985.770938-1.13834504 1.229508-.25843509.368853-.28304796.614754-.23997545.614754.04307252 0 0-.04918.0369193-.043032.0369193.006147.06153217.055328.1476772.147541.31228259.302244.66417579.560751 1.0460468.768442 1.1534293.6118 2.3764921 1.08241 3.6427041 1.40164 1.417629.377114 2.8557412.672681 4.3072516.885246 2.9965573.442254 6.0171515.702976 9.0452281.780737 6.1832814.156449 12.3703726-.061162 18.5273348-.651639 6.1901357-.565574 12.3741183-1.395492 18.5334879-2.422131 6.1593697-1.02664 12.306433-2.256148 18.3858108-3.633197 3.0519954-.696721 6.0937354-1.42418 9.12522-2.182377.7691521-.190574 1.507538-.387295 2.2336176-.614754l2.1966983-.614754c1.4460058-.442623 2.9043181-.836066 4.3072515-1.315574 11.4757491-3.688525 22.2131111-9.02459 31.2521861-16.223361 8.963215-7.089386 16.209205-16.108574 21.197831-26.385246 2.455549-5.080012 4.361529-10.4073 5.685572-15.891393.65573-2.720808 1.165126-5.474753 1.525998-8.25.178443-1.370902.313814-2.741803.406112-4.088115.043072-.670082.079992-1.334016.092298-1.979508v-.928279-.614754c.003622-.024457.003622-.049313 0-.07377z" fill="url(#b)"/><path d="m82.5084794 424.795082c3.1914683-.471312 6.3808855-.979508 9.5682516-1.52459.7876117-.135246 1.5998363-.282787 2.4182141-.442623l2.4612866-.467213c1.6244491-.362705 3.2612043-.682377 4.8856543-1.094263 12.989439-3.110655 25.843509-8.268442 37.331564-16.088114 5.783228-3.938455 11.111637-8.505279 15.887605-13.616804 4.820022-5.158805 9.039337-10.846739 12.577174-16.954918 5.334766-9.210605 9.155275-19.21696 11.315765-29.637295.36304-1.758196.676854-3.528688.935289-5.342213.129218-.903688.246129-1.844262.34458-2.760246l.135371-1.444672.055379-.768442v-.411886-.553278h-4.128808c-14.681575 34.586065-41.4173 75.405737-87.4433594 84.221311-59.8523365 11.434426-80.94556246 4.247951-88.05252746-.614754 0 .061475.0369193.135246.05537895.196721.22710089.691264.56139125 1.342632.99066785 1.930328.71771685.902541 1.58068606 1.679535 2.55358482 2.29918 1.5692901 1.028754 3.26256639 1.854989 5.03948428 2.459017 1.62508396.573026 3.28080396 1.055328 4.95949246 1.444672 3.2470233.734819 6.5343805 1.278785 9.8451463 1.629098 6.499897.667089 13.0342769.940131 19.5672284.817623 6.4977965-.086065 12.9771335-.454918 19.4257043-1.026639s12.8725288-1.321721 19.2718739-2.25z" fill="#4a4f54" opacity=".05"/><path d="m180.467685 333.688525s-44.303158-27.663935-44.303158-94.057377l-15.899911 95.286885c-3.994552 23.940652 1.993188 48.471518 16.570612 67.887295l10.405089 13.862705-11.07579 16.59836c-9.175485 0-16.613685 7.43134-16.613685 16.598361h38.765264l6.33166-18.989754c3.097031-9.279801 3.481246-19.249511 1.107579-28.739754l-5.537895-22.10041c-1.225167-4.894254-.510923-10.072149 1.993642-14.452869z" fill="url(#c)"/><path d="m164.647766 430.887295c3.097031-9.279801 3.481246-19.249511 1.107579-28.739754l-5.537895-22.10041c-1.225167-4.894254-.510923-10.072149 1.993642-14.452869l1.230643-2.127049c-32.901248-8.723361-13.14327 24.42418-7.580762 35.766394 5.987079 12.215163-.301508 29.206967-6.097838 38.422131-3.611938 5.747951-16.275257 9.903688-25.289719 12.221311h33.84269z" fill="#4a4f54" opacity=".05"/><path d="m179.969275 333.688525s44.303158-27.663935 44.303158-94.057377l15.899912 95.286885c3.994551 23.940652-1.993188 48.471518-16.570612 67.887295l-10.405089 13.875 11.075789 16.598361c9.175485 0 16.613685 7.431339 16.613685 16.59836h-38.765264l-6.33166-18.989754c-3.100082-9.279246-3.484331-19.24983-1.107579-28.739754l5.537895-22.10041c1.225167-4.894254.510923-10.072149-1.993642-14.452869z" fill="url(#d)"/><path d="m240.886118 449.877049c0-9.167021-7.4382-16.59836-16.613685-16.59836l-11.075789-16.598361 10.405089-13.862705c14.577424-19.415777 20.565163-43.946643 16.570612-67.887295l-10.097429-60.534836c-13.057125 17.711065-20.14563 51.866803-16.687523 67.954918 5.230234 24.368852.695314 45.491803-7.999181 61.321721s-3.267358 46.204918-3.267358 46.204918z" fill="#4a4f54" opacity=".05"/><path d="m235.846633 277.665984c0 65.69877-24.797462 89.219262-55.378948 89.219262-30.581485 0-55.378948-23.520492-55.378948-89.219262 0-65.698771 24.791309-148.690574 55.378948-148.690574s55.378948 82.997951 55.378948 148.690574z" fill="url(#f)"/><g fill="#4a4f54"><path d="m232.85617 235.782787c-1.359861-9.940574-3.168906-19.813525-5.347145-29.311476l-24.88976 33.159837v60.860655l5.537894-22.131147s5.033331-30.178279 24.699011-42.577869z" opacity=".1"/><path d="m208.157159 306.02459v16.598361l-6.473183-19.057377-2.012102 14.354508-6.005539-21.245902-2.12286 14.883197-5.537895-27.663934z"/><path d="m152.772058 311.557377.590709 16.930328 6.183982-19.155738 2.227465 14.323771 5.679419-21.331968 2.356681 14.846312 5.119477-27.743852z"/></g><path d="m208.157159 156.639344 6.6947 51.344263-18.699625 14.600409c-6.220902 3.110656-10.146654 11.920082-10.146654 18.866804v42.418032l22.151579 22.131148v-38.336066c0-5.560005 1.805007-10.970028 5.144089-15.418032l19.3211-33.547132c2.543525-2.99906 3.451903-7.054273 2.430521-10.850409-2.627424-9.72541-5.45175-20.397541-7.470005-28.069672-1.85606-7.046864-2.794987-14.303403-2.793561-21.590164 0-10.198771-5.771717-11.317623-14.90309-15.879099l-1.113732-.559426c-10.557484-5.262205-17.228974-16.036245-17.229006-27.82377v-7.081968h-22.151579v7.081968c-.001475 11.787115-6.672533 22.560458-17.229006 27.82377l-1.113732.559426c-9.131374 4.561476-14.896938 5.680328-14.896938 15.879099 0 0-4.307251 42.934426-9.112913 60.725409-1.023636 3.794155-.120023 7.848622 2.418214 10.85041l18.164295 28.014345c3.331177 4.311153 5.139983 9.602869 5.144089 15.04918v38.729508l22.151579-22.131147v-44.262296c0-6.368852-3.304277-10.413934-8.645269-13.745901-1.458312-.903689-2.935084-1.77664-4.368784-2.723361l-14.675421-9.645492 5.537895-62.409836c7.537283-6.735165 18.139142-8.853581 27.689474-5.532787 0 0 11.088096-5.532787 27.70178 5.532787z" fill="url(#g)"/><path d="m169.391896 112.659836v-5.815574h22.151579v7.081968c-.000974 8.656277 3.60912 16.921313 9.962057 22.807377-17.00749-5.274591-26.809564-15.842214-32.113636-24.073771z" fill="#4a4f54" opacity=".1"/><path d="m180.467685 112.745902s-1.809045-7.991804-17.265925-4.659836c-15.45688 3.331967-20.145631-2.317623-20.145631-2.317623l-.572249 2.317623c-11.451136-3.399591-14.878477-11.8893447-14.878477-11.8893447l-1.95057 1.4508197c-6.528562-7.8934426-5.427137-17.6618853-5.427137-17.6618853-6.940828-3.1967213-11.906474-12.909836-11.752643-24.3135246.19075-13.9180327 7.919189-25.1004098 17.265925-24.9713114.828603.0105639 1.653708.1094852 2.461287.2950819 2.223609.520256 4.491839-.6717582 5.322532-2.7971311 3.618091-9.2766394 11.832635-13.8627049 11.832635-13.8627049l-1.230643-1.2295082c9.162139-7.09426232 20.077945-4.62909838 20.077945-4.62909838l-.307661-1.77663935c14.269309 0 16.613685 7.61680333 16.613685 7.61680333s2.338222-7.61680333 16.613684-7.61680333l-.307661 1.77663935s10.915806-2.4590164 20.071793 4.62909838l-1.230644 1.2295082s8.214544 4.5860655 11.832636 13.8627049c.830008 2.1197757 3.090635 3.3105482 5.310225 2.7971311.807579-.1855967 1.632685-.284518 2.461287-.2950819 9.346736-.1290984 17.075176 11.0655737 17.265925 24.9713114.153831 11.4159837-4.805662 21.1168033-11.752643 24.3135246 0 0 1.101426 9.7684427-5.427137 17.6618853l-1.944416-1.4508197s-3.433495 8.4897537-14.884631 11.8893447l-.572249-2.317623s-4.688751 5.668032-20.145631 2.317623c-15.45688-3.35041-17.333611 4.659836-17.333611 4.659836z" fill="url(#h)"/><path d="m205.388212 57.7192623-24.920527-2.2622951-24.920526 2.2622951s-18.896528 13.5922131-5.27946 25.1495902c13.617068 11.557377 29.535439 9.534836 30.199986 18.4426225.689161-8.9077865 16.576766-6.8668029 30.193834-18.4426225 13.617068-11.5758197-5.273307-25.1495902-5.273307-25.1495902z" fill="#d1ccbd"/><path d="m194.607777 47.2254098c-11.992619-7.1987705-14.152398-23.6434426-14.152398-23.6434426s-2.153626 16.4446721-14.152398 23.6434426-12.43565 15.3688525-12.43565 15.3688525c0 9.1659836 11.90032 16.5983607 26.581895 16.5983607 14.681574 0 26.581895-7.4323771 26.581895-16.5983607.018459-.0122951-.436879-8.1762295-12.423344-15.3688525z" fill="url(#i)"/><path d="m152.778211 73.647541c2.264384.7377049 4.541074 1.352459 6.842377 1.8442623 1.144498.2704918 2.293099.5122951 3.445801.7254098.578403.0983607 1.156805.2090164 1.729054.3196721l1.735207.2827869c2.319763.3258197 4.633372.6577869 6.965441.8053279s4.657985.2827869 6.983901.295082c1.169111 0 2.332069 0 3.50118-.0430328s2.325916-.0922131 3.488874-.2028689c2.332069-.1229508 4.645678-.4672131 6.965441-.7684426 4.659126-.7018169 9.249713-1.8000736 13.721672-3.2827869-2.051594 1.2302206-4.217327 2.2595901-6.46703 3.0737705-2.251173.83508-4.552971 1.5270357-6.891602 2.0717213-1.175265.2520492-2.350529.5348361-3.5381.7008197l-1.784433.2827869-1.790586.2213115c-.615321.0860655-1.199877.1290983-1.796739.1659836l-1.802892.1229508c-1.230644.0430328-2.405908.0860656-3.611938.0983606-4.816319-.0327739-9.614234-.597684-14.306229-1.6844262-2.338492-.537598-4.640349-1.2234116-6.891602-2.0532787-2.251541-.7934356-4.426388-1.7893208-6.497797-2.9754098z" fill="#4a4f54"/><path d="m165.521523 15.0061475h-.356887c-9.156224.4511782-17.62303 4.9953314-23.054662 12.3734872-5.431632 7.3781557-7.251271 16.8067808-4.954779 25.673644 5.169327-.5451388 10.216471-1.9214955 14.946163-4.0758197-5.071245-1.8944358-7.944301-7.2579056-6.708946-12.5243754s6.194472-8.7961357 11.580161-8.2422131c5.385689.5539227 9.521025 5.0189608 9.656529 10.4264246 2.692714-2.7802751 5.098444-5.8243105 7.180803-9.0860656 1.884948-2.9595721 1.977393-6.7178536.240231-9.7663574s-5.019136-4.8874486-8.528613-4.7787246z" fill="url(#k)"/><path d="m224.733925 43.9241803c-.824885-15.6033044-13.302408-28.0693191-28.920118-28.8934426h-.356886c-3.513494-.1118181-6.800234 1.7287569-8.538321 4.7814618-1.738087 3.0527048-1.641876 6.815844.249938 9.7759153 2.082359 3.2617551 4.488089 6.3057904 7.180804 9.0860655.135504-5.4074638 4.27084-9.8725019 9.656528-10.4264245 5.385689-.5539227 10.344806 2.9757432 11.580161 8.242213s-1.6377 10.6299396-6.708945 12.5243755c4.729691 2.1543242 9.776836 3.5306808 14.946163 4.0758196.762647-2.9922857 1.069652-6.0822998.910676-9.1659836z" fill="url(#l)"/><path d="m210.618446 36.4672131c-1.529247 0-2.768947-1.2385565-2.768947-2.7663934.000129-.8363801.383211-1.6267483 1.039893-2.1454918-3.612193-1.8740801-8.050719-.8708032-10.503659 2.3742294-2.452939 3.2450326-2.204402 7.7847567.588159 10.7431417 2.79256 2.958385 7.314133 3.472025 10.700187 1.215516 3.386055-2.2565089 4.648369-6.6246038 2.987235-10.3369855-.519639.5816127-1.262534.9147126-2.042868.9159836z" fill="#4a4f54"/><ellipse cx="210.618446" cy="33.70082" fill="#fff" rx="2.768947" ry="2.766393"/><ellipse cx="161.085054" cy="33.70082" fill="#fff" rx="2.768947" ry="2.766393"/><path d="m141.702422 8.80327869c1.528906-2.03623202 3.459829-3.73730883 5.673265-4.99795082.559943-.30737705 1.113732-.6147541 1.692135-.90983607.578402-.29508196 1.175264-.5102459 1.765973-.76844262s1.230643-.39959016 1.845965-.6147541c.615322-.21516393 1.230643-.30122951 1.845965-.45491803 2.531759-.52293324 5.136928-.58748183 7.69152-.19057377 1.254423.1794319 2.490077.47160047 3.69193.87295082.61161.19585261 1.20802.43625138 1.784433.71926229.578402.25819672 1.144498.52868853 1.698288.8237705-.615322-.03688525-1.26141-.09836066-1.876731-.16598361-.611389-.09589231-1.227677-.15746433-1.845965-.18442623-1.230643-.06147541-2.412061-.18442623-3.611938-.12909836-2.349168-.01617215-4.69371.21044334-6.996207.67622951-.572249.1352459-1.162958.21516393-1.722901.38114754l-1.74136.44262295c-.559943.19057377-1.119886.38729508-1.692135.56557377s-1.107579.43032787-1.667521.6147541c-2.262568.9324112-4.447643 2.0424412-6.534716 3.31967213z" fill="#9fa1a5" opacity=".5"/><path d="m191.543475 3.2704918c.547636-.29508196 1.119885-.55942623 1.692135-.82377049.56879-.27771172 1.156929-.51398312 1.759819-.70696721 3.67509-1.20134027 7.598787-1.43218226 11.389604-.67008197.615322.15368853 1.267563.25204918 1.845965.44877049l1.845965.6147541c.615322.25204918 1.187571.50409836 1.765973.76844262.578402.26434427 1.132192.6147541 1.692135.90368853 2.215629 1.26260911 4.148579 2.96571851 5.679418 5.00409836-2.08587-1.25941316-4.266576-2.35492623-6.522409-3.27663934-.566096-.2090164-1.113732-.43647541-1.673675-.6147541s-1.126039-.375-1.685981-.56557377l-1.710594-.46106558c-.559943-.17827869-1.150652-.25204918-1.722901-.38729508-2.317724-.47629729-4.679259-.7070816-7.045433-.68852459-1.20539-.01806881-2.410921.02501944-3.611938.12909836-.618173.02491271-1.234462.08443234-1.845965.17827869-.596862.04918033-1.218337.11065574-1.852118.14754098z" fill="#9fa1a5" opacity=".5"/><path d="m163.226373 35.4282787c-.652145.8027972-1.699396 1.1730489-2.711797.9587452-1.0124-.2143036-1.819376-.9770554-2.089616-1.9751018s.041787-2.0632308.807975-2.7582336c-3.715851-1.667891-8.094002-.4134668-10.36032 2.9684305s-1.75923 7.9040404 1.199957 10.701059 7.506642 3.0524203 10.760955.6043748c3.254314-2.4480456 4.265502-6.8849168 2.392846-10.4992741z" fill="#4a4f54"/><path d="m120.227696 79.9856557v.362705c-.018459-.1229509-.006153-.2336066 0-.362705z" fill="url(#m)"/><path d="m131.06351 40.0327869c-2.910471-1.5614754-18.416576-8.7295082-22.453086 13.3463115-.055379.7561475-.092299 1.5184426-.104605 2.2930327-.15383 11.4159837 4.811815 21.1168033 11.752643 24.3135246.947596-18.5163934 11.648039-26.9200819 11.648039-26.9200819-.972966-4.2718248-1.25754-8.6713799-.842991-13.0327869z" fill="url(#o)"/><path d="m229.896473 40.0327869c2.910472-1.5614754 18.416577-8.7295082 22.453087 13.3463115.055379.7561475.092298 1.5184426.104605 2.2930327.15383 11.4159837-4.805662 21.1168033-11.752644 24.3135246-.947595-18.5102459-11.648038-26.9200819-11.648038-26.9200819.972966-4.2718248 1.257539-8.6713799.84299-13.0327869z" fill="url(#p)"/><path d="m193.457125 57.4118852c-.161801-1.7884215-1.058529-3.429779-2.476596-4.5331268-1.418067-1.1033479-3.230539-1.569923-5.005715-1.2885945-3.654725.524338-7.365685.524338-11.020411 0-1.775175-.2813285-3.587648.1852466-5.005715 1.2885945-1.418067 1.1033478-2.314794 2.7447053-2.476596 4.5331268v.522541c0 5.3852459 5.827096 9.75 13.014053 9.75s13.0079-4.3647541 13.0079-9.75c-.01846-.147541-.024613-.3442623-.03692-.522541z" fill="#4a4f54"/><path d="m174.880565 60.9713115c-.916829 0-1.685981-.8483607-1.895191-1.9856558-.034519.2031563-.053036.4087047-.055379.6147541 0 1.4385246.873757 2.6004099 1.95057 2.6004099s1.950569-1.1618853 1.950569-2.6004099c-.002342-.2060494-.020859-.4115978-.055378-.6147541-.178444 1.1372951-.978362 1.9856558-1.895191 1.9856558zm13.124811-1.9549181c-.20921 1.1372951-.972209 1.9856558-1.895191 1.9856558-.922983 0-1.679828-.8483607-1.889038-1.9856558-.039664.2025511-.060265.4083668-.061532.6147541 0 1.4385246.873757 2.6004099 1.95057 2.6004099s1.956723-1.1618853 1.956723-2.6004099c-.001267-.2063873-.021868-.412203-.061532-.6147541z" fill="#fff" fill-rule="nonzero" opacity=".25"/><g fill="#4a4f54"><path d="m1.40908657.19672131c.20305614 7.7704918.29535439 15.54713119.4491848 23.31762299l.25228187 23.3237705c.17229006 15.5471311.19690293 31.0942622.21536258 46.6413934.01845965 15.5471308-.04307252 31.0942618-.20920936 46.6413938l-.27074152 23.317623c-.15383042 7.776639-.23997545 15.547131-.4491848 23.32377-.20920936-7.776639-.30150761-15.547131-.45533802-23.32377l-.25843509-23.317623c-.16613685-15.547132-.19074971-31.094263-.20920936-46.6413938-.01845965-15.5471312.04307251-31.0942623.21536257-46.6413934l.25228188-23.3237705c.16613684-7.7704918.28920117-15.52254102.46764445-23.31762299z" opacity=".25" transform="translate(179.058599 141.393443)"/><path d="m240.886118 449.877049-2.590504-2.588115c-.78137-.781591-1.841701-1.220763-2.947391-1.220763-1.105691 0-2.166021.439172-2.947391 1.220763l-2.590504 2.588115-2.590504-2.588115c-.781369-.781591-1.8417-1.220763-2.947391-1.220763-1.10569 0-2.166021.439172-2.94739 1.220763l-2.590504 2.588115-3.415036-3.411885c-1.269088-1.266798-3.206688-1.581182-4.811815-.780738l-8.386834 4.192623z"/><path d="m119.550842 449.877049 2.590505-2.588115c.781369-.781591 1.8417-1.220763 2.94739-1.220763 1.105691 0 2.166022.439172 2.947391 1.220763l2.590504 2.588115 2.590504-2.588115c.78137-.781591 1.8417-1.220763 2.947391-1.220763 1.10569 0 2.166021.439172 2.947391 1.220763l2.590504 2.588115 3.408882-3.411885c1.269088-1.266798 3.206688-1.581182 4.811815-.780738l8.392987 4.192623z"/></g></g></svg>